HIERARCHY
ROOT SimulationBone
{
	OFFSET 0.000000 0.000000 0.000000
	CHANNELS 6 Xposition Yposition Zposition Zrotation Yrotation Xrotation 
	JOINT Hips
	{
		OFFSET 0.000000 0.000000 0.000000
		CHANNELS 6 Xposition Yposition Zposition Zrotation Yrotation Xrotation 
		JOINT RightUpLeg
		{
			OFFSET 0.103456 1.857829 10.548506
			CHANNELS 3 Zrotation Yrotation Xrotation
			JOINT RightLeg
			{
				OFFSET 43.499992 -0.000038 -0.000002
				CHANNELS 3 Zrotation Yrotation Xrotation
				JOINT RightFoot
				{
					OFFSET 42.372192 0.000015 -0.000007
					CHANNELS 3 Zrotation Yrotation Xrotation
					JOINT RightToe
					{
						OFFSET 17.299999 -0.000002 0.000003
						CHANNELS 3 Zrotation Yrotation Xrotation
						End Site
						{
							OFFSET 0.000000 0.000000 0.000000
						}
					}
				}
			}
		}
		JOINT LeftUpLeg
		{
			OFFSET 0.103457 1.857829 -10.548503
			CHANNELS 3 Zrotation Yrotation Xrotation
			JOINT LeftLeg
			{
				OFFSET 43.500042 -0.000027 0.000008
				CHANNELS 3 Zrotation Yrotation Xrotation
				JOINT LeftFoot
				{
					OFFSET 42.372257 -0.000008 0.000014
					CHANNELS 3 Zrotation Yrotation Xrotation
					JOINT LeftToe
					{
						OFFSET 17.299992 -0.000005 0.000004
						CHANNELS 3 Zrotation Yrotation Xrotation
						End Site
						{
							OFFSET 0.000000 0.000000 0.000000
						}
					}
				}
			}
		}
		JOINT Spine
		{
			OFFSET 6.901968 -2.603733 -0.000001
			CHANNELS 3 Zrotation Yrotation Xrotation
			JOINT Spine1
			{
				OFFSET 12.588099 0.000002 0.000000
				CHANNELS 3 Zrotation Yrotation Xrotation
				JOINT Spine2
				{
					OFFSET 12.343206 0.000000 -0.000001
					CHANNELS 3 Zrotation Yrotation Xrotation
					JOINT Neck
					{
						OFFSET 25.832886 -0.000004 0.000003
						CHANNELS 3 Zrotation Yrotation Xrotation
						JOINT Head
						{
							OFFSET 11.766620 0.000005 -0.000001
							CHANNELS 3 Zrotation Yrotation Xrotation
							End Site
							{
								OFFSET 0.000000 0.000000 0.000000
							}
						}
					}
					JOINT RightShoulder
					{
						OFFSET 19.745899 -1.480370 6.000108
						CHANNELS 3 Zrotation Yrotation Xrotation
						JOINT RightArm
						{
							OFFSET 11.284125 -0.000009 -0.000018
							CHANNELS 3 Zrotation Yrotation Xrotation
							JOINT RightForeArm
							{
								OFFSET 33.000050 0.000004 0.000032
								CHANNELS 3 Zrotation Yrotation Xrotation
								JOINT RightHand
								{
									OFFSET 25.200008 0.000015 0.000008
									CHANNELS 3 Zrotation Yrotation Xrotation
									End Site
									{
										OFFSET 0.000000 0.000000 0.000000
									}
								}
							}
						}
					}
					JOINT LeftShoulder
					{
						OFFSET 19.746099 -1.480375 -6.000073
						CHANNELS 3 Zrotation Yrotation Xrotation
						JOINT LeftArm
						{
							OFFSET 11.284138 -0.000015 -0.000012
							CHANNELS 3 Zrotation Yrotation Xrotation
							JOINT LeftForeArm
							{
								OFFSET 33.000092 0.000017 0.000013
								CHANNELS 3 Zrotation Yrotation Xrotation
								JOINT LeftHand
								{
									OFFSET 25.199780 0.000135 0.000422
									CHANNELS 3 Zrotation Yrotation Xrotation
									End Site
									{
										OFFSET 0.000000 0.000000 0.000000
									}
								}
							}
						}
					}
				}
			}
		}
	}
}
MOTION
Frames: 7
Frame Time: 0.033333
-31.132068 0.000000 -377.648967 0.000000 -7.342121 0.000000 -2.528168 91.031319 2.268761 88.603198 2.539283 179.689477 168.200580 1.672391 154.761227 -25.971154 5.583515 -12.046020 91.208912 7.601186 -3.115191 21.454562 0.003108 0.000017 157.987275 7.606903 -171.210781 -38.855761 -2.058427 2.522956 80.341186 0.761624 10.300418 21.454553 -0.003092 0.000000 7.413802 -1.125533 -1.839564 4.851003 -2.173510 -3.725002 4.533393 -2.196088 -3.711833 23.987867 -4.688635 -28.194024 -32.113661 23.924857 -43.014137 149.627151 -83.572911 29.091114 15.627679 63.322329 17.874217 -41.827416 -12.283082 1.356694 5.025435 -2.245701 16.189396 -146.082802 80.237408 35.965235 -10.125671 -67.266059 -37.275535 -31.295596 15.863861 -1.310829 11.681920 1.660210 1.291115 
-32.054185 0.000000 -377.388981 0.000000 -7.786835 0.000000 -2.316284 91.067200 2.206462 88.884438 2.518448 179.719834 167.992423 1.466905 154.704973 -26.036642 5.599817 -12.222239 90.777968 7.719474 -3.132914 21.454558 0.003105 0.000018 159.677720 8.852601 -171.391918 -40.352430 -2.079831 2.613236 80.751100 0.564745 9.878392 21.454550 -0.003093 0.000000 7.376315 -1.119375 -1.686141 4.772994 -2.166988 -3.417223 4.455266 -2.189305 -3.404096 23.980239 -5.036569 -28.013415 -31.888941 24.062398 -42.821782 154.564544 -83.307776 24.129243 16.547223 63.223052 19.871153 -39.941775 -12.060447 1.291884 5.490509 -2.191578 15.345680 -146.094277 80.260091 35.952681 -10.062851 -67.390956 -37.630169 -30.538322 15.214771 -1.253989 11.853641 0.466206 0.734801 
-32.987485 0.000000 -377.041288 0.000000 -8.120900 0.000000 -2.096071 91.082703 2.104398 89.173953 2.476837 179.673358 167.751727 1.215700 154.698580 -26.234188 5.605451 -12.402322 90.385423 7.834909 -3.198585 21.454558 0.003108 0.000017 161.466437 10.059599 -171.965490 -41.358534 -1.852085 2.276656 81.041356 0.664496 9.409559 21.454550 -0.003096 -0.000002 7.354724 -1.111902 -1.537534 4.726857 -2.160537 -3.119387 4.409050 -2.179465 -3.106298 23.936063 -5.245552 -27.784866 -31.683957 24.076058 -42.522569 157.912375 -83.096723 20.762899 18.213080 63.124861 21.882514 -38.663625 -11.706920 1.236014 5.720401 -2.016087 15.142850 -146.205021 80.266573 35.840113 -9.910467 -67.555407 -38.181386 -29.868810 14.810191 -1.214981 11.868236 -0.347536 0.423706 
-33.945501 0.000000 -376.607922 0.000000 -8.348308 0.000000 -1.871527 91.065826 1.979822 89.473244 2.377528 179.539893 167.461144 0.915299 154.684114 -26.591383 5.571440 -12.558818 90.020964 7.932327 -3.279990 21.454560 0.003104 0.000017 163.262913 11.278898 -172.817091 -41.965191 -1.489578 1.530881 81.360728 1.137688 9.309222 21.454541 -0.003100 -0.000001 7.344417 -1.111459 -1.400521 4.703751 -2.165494 -2.845201 4.385819 -2.182767 -2.832086 23.942294 -5.458861 -27.531224 -31.541086 24.045363 -42.194563 161.979439 -83.020287 16.660730 19.996723 63.008215 24.272983 -37.709106 -11.426722 1.193967 6.096464 -2.032276 14.852260 -146.734156 80.395240 35.298800 -9.424362 -67.786492 -38.731725 -29.388392 14.588027 -1.191573 12.088672 -0.903204 0.684611 
-34.941612 0.000000 -376.086346 0.000000 -8.469989 0.000000 -1.639762 91.037720 1.843891 89.743856 2.273411 179.350162 167.097463 0.501998 154.585103 -27.057794 5.516372 -12.619481 89.659374 7.960765 -3.386830 21.454558 0.003104 0.000016 164.989011 12.344103 -173.904239 -42.168987 -1.021661 0.575977 81.789705 1.733867 9.164820 21.454551 -0.003095 -0.000001 7.332776 -1.099320 -1.274757 4.677832 -2.146594 -2.592995 4.359840 -2.162345 -2.579992 23.999832 -5.742820 -27.333825 -31.361691 23.967294 -41.891828 166.205291 -82.930531 12.396235 21.674919 62.839038 26.443224 -36.937936 -11.102444 1.154039 6.344470 -2.026579 14.775740 -146.812389 80.632883 35.211182 -8.741627 -68.095156 -39.099722 -29.128359 14.535568 -1.183335 12.129193 -1.352386 0.813273 
-35.982791 0.000000 -375.475772 0.000000 -8.488067 0.000000 -1.385176 90.988747 1.697510 90.010869 2.139779 179.077408 166.728865 -0.000699 154.382779 -27.569632 5.416039 -12.589277 89.330760 7.929410 -3.485464 21.454555 0.003116 0.000019 166.633352 13.296404 -174.760007 -42.012097 -0.692268 -0.709256 82.282059 2.581888 9.123592 21.454548 -0.003094 0.000000 7.317172 -1.093984 -1.152508 4.644270 -2.141180 -2.348028 4.326216 -2.155450 -2.335063 24.166415 -5.913703 -27.174918 -31.215160 23.783130 -41.588055 169.436967 -82.807615 9.135002 23.292630 62.630273 28.274232 -36.324992 -10.836999 1.122099 6.436478 -1.859715 14.724341 -146.292461 80.794608 35.732807 -8.225143 -68.263233 -39.289215 -29.105823 14.441971 -1.176907 12.005307 -1.300841 0.823502 
-37.072334 0.000000 -374.782748 0.000000 -8.411055 0.000000 -1.132327 90.901413 1.543470 90.260655 1.920257 178.799541 166.277786 -0.482300 154.350882 -28.173765 5.253456 -12.604362 88.991703 7.925536 -3.602895 21.454560 0.003097 0.000016 168.184488 14.300003 -175.279238 -41.467752 -0.340161 -2.544434 82.803462 3.969786 9.774667 21.454545 -0.003093 -0.000001 7.290645 -1.100757 -1.051233 4.589528 -2.161952 -2.145352 4.271428 -2.175002 -2.132262 24.543819 -6.128494 -27.122261 -31.137364 23.666740 -41.450991 170.706904 -82.689733 7.855272 24.909539 62.401845 29.868260 -35.906065 -10.732172 1.105440 6.564833 -1.531640 14.913289 -145.942414 80.898946 36.083999 -7.614971 -68.334711 -39.682375 -29.246846 14.524139 -1.184818 12.092572 -0.964307 0.646521 
